<?xml version="1.0" encoding="UTF-8"?>
<!DOCTYPE svg PUBLIC "-//W3C//DTD SVG 1.1//EN" "http://www.w3.org/Graphics/SVG/1.1/DTD/svg11.dtd">
<!-- Creator: CorelDRAW 2018 (64-Bit) -->
<svg xmlns="http://www.w3.org/2000/svg" xml:space="preserve" width="20.8869mm" height="21.3834mm" version="1.1" style="shape-rendering:geometricPrecision; text-rendering:geometricPrecision; image-rendering:optimizeQuality; fill-rule:evenodd; clip-rule:evenodd"
viewBox="0 0 696.13 712.68"
 xmlns:xlink="http://www.w3.org/1999/xlink">
 <defs>
  <style type="text/css">
   <![CDATA[
    .fil0 {fill:white}
   ]]>
  </style>
 </defs>
 <g id="Слой_x0020_1">
  <metadata id="CorelCorpID_0Corel-Layer"/>
  <g id="_1757571904608">
   <g>
    <polygon class="fil0" points="348.13,211.98 348.13,432.44 401,432.44 401,211.98 "/>
    <polygon class="fil0" points="482.46,300.16 262.01,300.16 262.01,353.03 482.46,353.04 "/>
   </g>
   <polygon class="fil0" points="199.9,558.87 39.98,712.68 -0,674.22 159.92,520.41 "/>
   <path class="fil0" d="M372.24 579.98c-143.11,0 -259.12,-115.41 -259.12,-257.77 0,-142.36 116.01,-257.77 259.12,-257.77 143.1,0 259.11,115.4 259.11,257.77 0,142.36 -116.01,257.77 -259.11,257.77zm0 64.44c-178.88,0 -323.89,-144.26 -323.89,-322.21 0,-177.95 145.01,-322.21 323.89,-322.21 178.88,0 323.89,144.26 323.89,322.21 0,177.95 -145.01,322.21 -323.89,322.21z"/>
  </g>
 </g>
</svg>
